<?xml version="1.0" encoding="UTF-8" standalone="no"?>
<!-- Created with Inkscape (http://www.inkscape.org/) -->

<svg
   width="119.77329mm"
   height="97.449944mm"
   viewBox="0 0 119.77329 97.449944"
   version="1.1"
   id="svg5"
   sodipodi:docname="blender.svg"
   inkscape:version="1.1 (c68e22c387, 2021-05-23)"
   xmlns:inkscape="http://www.inkscape.org/namespaces/inkscape"
   xmlns:sodipodi="http://sodipodi.sourceforge.net/DTD/sodipodi-0.dtd"
   xmlns="http://www.w3.org/2000/svg"
   xmlns:svg="http://www.w3.org/2000/svg">
  <sodipodi:namedview
     id="namedview7"
     pagecolor="#505050"
     bordercolor="#eeeeee"
     borderopacity="1"
     inkscape:pageshadow="0"
     inkscape:pageopacity="0"
     inkscape:pagecheckerboard="0"
     inkscape:document-units="mm"
     showgrid="false"
     fit-margin-top="0"
     fit-margin-left="0"
     fit-margin-right="0"
     fit-margin-bottom="0"
     inkscape:zoom="1.4467452"
     inkscape:cx="225.67899"
     inkscape:cy="151.71987"
     inkscape:window-width="1920"
     inkscape:window-height="1001"
     inkscape:window-x="-9"
     inkscape:window-y="-9"
     inkscape:window-maximized="1"
     inkscape:current-layer="layer1" />
  <defs
     id="defs2" />
  <g
     inkscape:label="Layer 1"
     inkscape:groupmode="layer"
     id="layer1"
     transform="translate(-23.49296,-12.871446)">
    <path
       d="m 142.91474,67.138056 c -0.7027,-4.94491 -2.41538,-9.63433 -5.09211,-13.93655 -2.33428,-3.75468 -5.32954,-7.09402 -8.90468,-9.93224 l 0.01,-0.009 -37.54799,-28.83901 a 1.0709243,1.0709243 0 0 0 -0.0846,-0.0673 c -1.24836,-0.95631 -2.93854,-1.48251 -4.7574,-1.48251 -1.82121,0 -3.57748,0.52737 -4.9428,1.48556 -1.46798,1.02545 -2.30709,2.38608 -2.36569,3.83437 -0.0537,1.35125 0.59089,2.65141 1.8198,3.66491 2.41655,1.90676 4.82771,3.855 7.24215,5.80559 2.34319,1.89386 4.75764,3.84421 7.16036,5.743 l -45.99021,-0.0312 c -5.25946,0 -8.84069,2.46976 -9.57738,6.60462 -0.32369,1.81112 0.24752,3.80249 1.52447,5.32766 1.35477,1.61682 3.32176,2.50867 5.53838,2.50867 l 3.506,0.002 c 4.84341,0 9.70816,-0.012 14.56635,-0.0237 l 4.63294,-0.0108 -41.74004,30.88031 -0.16571,0.12118 c -2.33147,1.78698 -3.85781,4.29237 -4.18713,6.87323 -0.24962,1.95527 0.2065,3.74202 1.31961,5.16898 1.32665,1.7012 3.39794,2.63688 5.83278,2.63688 2.39194,0 4.83264,-0.90638 6.87557,-2.55672 l 22.54028,-18.44643 c -0.0963,0.90076 -0.2133,2.22225 -0.19994,3.18137 0.0253,1.51861 0.51284,4.56567 1.28469,7.03941 1.59478,5.0839 4.28112,9.73536 7.984,13.82029 3.85289,4.249954 8.54536,7.619764 13.94616,10.013584 5.70972,2.52531 11.84767,3.80718 18.24391,3.80718 h 0.0593 c 6.41664,-0.0155 12.57405,-1.31774 18.30229,-3.87188 5.4097,-2.42217 10.10006,-5.80558 13.93842,-10.054824 3.69819,-4.1058 6.38078,-8.76499 7.97251,-13.84467 a 35.421836,35.421836 0 0 0 1.50384,-7.73555 c 0.19666,-2.53843 0.11204,-5.1214 -0.24774,-7.67695 z m -41.06101,24.36687 c -14.0964,0 -25.52756,-10.2257 -25.52756,-22.84053 0,-12.61342 11.43139,-22.83911 25.52756,-22.83911 14.09664,0 25.52663,10.22569 25.52663,22.83911 5.4e-4,12.61483 -11.42999,22.84053 -25.52663,22.84053 z m 14.72128,-24.8476 c 0.20791,3.76499 -1.29593,7.26091 -3.9368,9.8488 -2.68633,2.63641 -6.51953,4.29237 -10.80604,4.29237 -4.28464,0 -8.11854,-1.65596 -10.80581,-4.29237 -2.6397,-2.58789 -4.14049,-6.08334 -3.93376,-9.84575 0.20252,-3.65718 1.98645,-6.88542 4.67349,-9.17118 2.64227,-2.24756 6.19022,-3.61874 10.06584,-3.61874 3.8761,0 7.42311,1.37165 10.06561,3.61874 2.68845,2.28576 4.47285,5.51166 4.67747,9.16813 z"
       id="path1147"
       style="stroke-width:0.23439;fill:#ffffff;fill-opacity:1" />
  </g>
</svg>
