<?xml version="1.0" encoding="UTF-8" standalone="no"?>
<!-- Created with Inkscape (http://www.inkscape.org/) -->

<svg
   width="1249.4751mm"
   height="980.93994mm"
   viewBox="0 0 1249.475 980.93995"
   version="1.1"
   id="svg5"
   sodipodi:docname="gimp.svg"
   inkscape:version="1.1 (c68e22c387, 2021-05-23)"
   xmlns:inkscape="http://www.inkscape.org/namespaces/inkscape"
   xmlns:sodipodi="http://sodipodi.sourceforge.net/DTD/sodipodi-0.dtd"
   xmlns="http://www.w3.org/2000/svg"
   xmlns:svg="http://www.w3.org/2000/svg">
  <sodipodi:namedview
     id="namedview7"
     pagecolor="#505050"
     bordercolor="#eeeeee"
     borderopacity="1"
     inkscape:pageshadow="0"
     inkscape:pageopacity="0"
     inkscape:pagecheckerboard="0"
     inkscape:document-units="mm"
     showgrid="false"
     fit-margin-top="0"
     fit-margin-left="0"
     fit-margin-right="0"
     fit-margin-bottom="0"
     inkscape:zoom="0.11313708"
     inkscape:cx="1842.8971"
     inkscape:cy="2779.8135"
     inkscape:window-width="1920"
     inkscape:window-height="1001"
     inkscape:window-x="-9"
     inkscape:window-y="-9"
     inkscape:window-maximized="1"
     inkscape:current-layer="layer1" />
  <defs
     id="defs2" />
  <g
     inkscape:label="Layer 1"
     inkscape:groupmode="layer"
     id="layer1"
     transform="translate(586.86189,490.30443)">
    <path
       fill="#716955"
       d="m -238.51637,-101.7126 c -11.03831,0 -22.07661,-6.36932 -27.09399,-16.98471 l -8.02803,-16.98471 -3.01141,19.10795 -1.00507,8.49215 c 0,35.03145 26.09081,62.631556 59.20574,62.631556 33.1153,0 59.20573,-27.600106 59.20573,-62.631556 0,-32.9078 -25.08727,-60.5083 -56.19508,-62.63155 l -17.05962,-1.06323 14.04897,11.67742 c 7.02447,6.36933 12.04185,15.92309 12.04185,25.47727 -1.00506,18.04633 -15.05213,32.90781 -32.11174,32.90781 z m -5.01737,-142.24782 c 50.17452,0 93.32457,36.09267 106.36999,83.86275 8.02765,-23.35444 21.07306,-43.524 38.132296,-59.44709 -163.568636,-10.6158 -233.812676,-164.54063 -233.812676,-164.54063 l -4.01383,194.26397 c 19.06635,-31.84658 53.18482,-54.139 93.32422,-54.139 z M 15.366194,-21.034314 c 37.129124,0 67.233769,-31.846586 67.233769,-71.124108 0,-38.215908 -28.097542,-70.062488 -64.223115,-71.124108 l -15.0525117,-1.06322 12.0418577,9.55417 c 9.031583,7.43094 14.048961,19.10795 14.048961,31.84659 0,22.29241 -17.059236,40.338738 -38.1326762,40.338738 -14.0485808,0 -27.0939898,-8.492155 -34.1184698,-21.230788 l -7.024481,-13.80026 -2.006344,15.9231 -1.005068,9.554174 c 1.005068,38.215902 31.107816,71.124108 68.236941,71.124108 z M 660.60914,480.01852 c -4.01383,-14.86188 -8.02803,-29.72335 -12.04186,-43.52361 -25.08727,-95.53977 -44.1536,-169.84873 -123.42885,-162.4178 -12.04186,1.06322 -22.077,5.30769 -31.10821,11.67741 L 414.7546,232.67674 h -3.01141 l -6.02093,-20.16956 -12.04186,8.49256 c -25.08688,-16.98512 -53.1848,-31.84659 -81.28235,-45.64684 90.31393,-113.586091 139.48492,-314.21978 105.36607,-642.23939 -3.01141,-28.66214 -18.06279,-32.90821 -28.09755,-2.12244 -8.02803,26.53889 -61.21283,194.26395 -335.164907,240.9724 36.125573,24.41566 60.209287,66.87804 60.209287,115.70934 0,76.431804 -58.202564,138.001736 -130.45371,138.001736 -61.212461,0 -113.3941,-45.646438 -126.43951,-106.155151 -17.05924,42.46198 -56.19509,72.1857274 -102.35578,72.1857274 -46.16034,0 -85.29619,-29.7237474 -102.3558,-72.1857274 -1.00507,2.122437 -2.00634,4.246078 -3.01141,5.307697 -1.00507,-2.122437 -3.01142,-4.246077 -4.01383,-7.430936 -54.18835,-78.554646 -140.48846,-110.401236 -193.67327,-70.062486 -53.18481,41.40076 -52.18164,138.002135 2.00634,216.556779 45.15716,65.816411 112.39093,98.724621 164.57219,83.862751 151.52677,118.89377 431.499771,221.86447 619.15212,95.53974 37.12912,22.29282 79.27562,43.52361 118.41185,58.38548 v 1.06322 l 4.01383,12.73864 16.05569,-6.36931 2.00633,2.12243 88.30684,33.96943 c 1.00507,29.72334 18.06278,62.63156 54.18835,77.49344 67.23378,27.60051 131.45688,61.56993 131.45688,62.63154 l 10.03514,5.3077 z M -553.6114,-73.05047 c 0,-33.96983 22.07662,-61.56993 48.16743,-61.56993 27.09399,0 48.16743,27.6001 48.16743,61.56993 0,33.969423 -22.07698,61.569931 -48.16743,61.569931 -27.09436,0 -48.16743,-27.600508 -48.16743,-61.569931 z m 367.27667,197.44883 C -2.6965923,163.67588 91.631546,127.58402 145.81991,81.935978 131.77095,61.766809 106.68368,40.535617 106.68368,40.535617 c 0,0 64.22311,19.107952 87.30366,49.892917 10.03475,13.800256 13.04503,25.477266 12.04186,37.154286 -32.11176,-11.67702 -56.19546,-19.10795 -61.21284,-21.23079 -20.06989,-9.554179 -39.13623,-3.18566 -44.15361,12.73863 -4.013826,11.67702 -1.005069,25.47727 9.03158,36.09266 -63.21994,30.78497 -166.579282,18.04633 -296.02906,-30.78496 z"
       id="path1574"
       style="fill:#ffffff;fill-opacity:1;stroke:none;stroke-width:10.3211" />
  </g>
</svg>
