<?xml version="1.0" encoding="UTF-8" standalone="no"?>
<!-- Created with Inkscape (http://www.inkscape.org/) -->

<svg
   width="166.10202mm"
   height="81.374489mm"
   viewBox="0 0 166.10202 81.374489"
   version="1.1"
   id="svg5"
   sodipodi:docname="teapot.svg"
   inkscape:version="1.1 (c68e22c387, 2021-05-23)"
   xmlns:inkscape="http://www.inkscape.org/namespaces/inkscape"
   xmlns:sodipodi="http://sodipodi.sourceforge.net/DTD/sodipodi-0.dtd"
   xmlns="http://www.w3.org/2000/svg"
   xmlns:svg="http://www.w3.org/2000/svg">
  <sodipodi:namedview
     id="namedview7"
     pagecolor="#505050"
     bordercolor="#eeeeee"
     borderopacity="1"
     inkscape:pageshadow="0"
     inkscape:pageopacity="0"
     inkscape:pagecheckerboard="0"
     inkscape:document-units="mm"
     showgrid="false"
     fit-margin-top="0"
     fit-margin-left="0"
     fit-margin-right="0"
     fit-margin-bottom="0"
     inkscape:zoom="1.4467452"
     inkscape:cx="225.67899"
     inkscape:cy="151.71987"
     inkscape:window-width="1920"
     inkscape:window-height="1001"
     inkscape:window-x="-9"
     inkscape:window-y="-9"
     inkscape:window-maximized="1"
     inkscape:current-layer="layer1" />
  <defs
     id="defs2" />
  <g
     inkscape:label="Layer 1"
     inkscape:groupmode="layer"
     id="layer1"
     transform="translate(-9.4532401,-21.249857)">
    <path
       style="fill:#ffffff;fill-opacity:1;stroke-width:0.0668733"
       d="m 89.833926,102.56211 c -6.61681,-0.067 -8.670732,-0.11207 -13.006857,-0.28526 -4.516897,-0.18042 -5.551647,-0.24257 -8.426036,-0.5061 -3.230281,-0.29616 -3.304794,-0.30631 -5.249555,-0.71479 l -1.972762,-0.41437 -0.769043,-0.44766 -0.769043,-0.447664 -0.17953,-0.5043 c -0.317512,-0.89188 -0.913832,-1.60442 -2.341817,-2.79822 -0.672957,-0.5626 -1.90065,-1.6232 -2.728207,-2.35689 -1.320437,-1.17068 -1.697844,-1.55478 -3.08267,-3.13741 l -1.578021,-1.80341 -1.121463,-2.08059 c -0.616804,-1.14433 -1.155944,-2.11753 -1.198087,-2.16267 -0.04214,-0.0451 -1.699771,-0.63714 -3.683617,-1.31556 l -3.606993,-1.23349 -3.792847,-3.83368 -3.792846,-3.83369 -1.950512,-4.66578 -1.950511,-4.66579 -1.42449,-4.863661 -1.42449,-4.86366 -2.17437,-4.279891 -2.174369,-4.279892 -4.321949,-3.209918 -4.321949,-3.209919 -1.084696,-0.491061 c -1.110822,-0.502888 -2.2557827,-1.16518 -2.2539537,-1.303779 0.0031,-0.23747 -0.03231,-0.237588 7.6897317,0.02552 4.174386,0.14223 7.844557,0.291861 8.155936,0.332512 0.70112,0.09153 1.461092,0.404583 2.376282,0.978848 0.668287,0.419339 0.670035,0.421145 2.619851,2.707192 l 1.951119,2.287573 1.133086,2.747094 c 0.667321,1.61788 1.524702,3.860393 2.085788,5.455465 l 0.952703,2.708368 1.513577,2.445105 1.513577,2.445104 2.741806,1.744293 2.741805,1.744297 2.022811,0.28564 c 1.112546,0.15711 2.034435,0.27307 2.048642,0.25768 0.01421,-0.0154 0.329431,-0.96262 0.700499,-2.104962 1.318518,-4.059116 4.237705,-10.951867 8.098398,-19.121845 1.657944,-3.508533 2.117596,-4.329975 2.792881,-4.991147 0.776321,-0.760097 0.541844,-0.72652 5.073623,-0.72652 h 3.846328 l 0.581519,-0.162145 c 0.590296,-0.164592 5.933989,-1.062511 10.378458,-1.743927 2.226533,-0.341367 3.372443,-0.559409 7.211873,-1.372259 1.25527,-0.265756 1.35127,-0.298284 3.24157,-1.098383 l 1.94799,-0.824518 0.35973,-1.094134 0.35973,-1.094135 -0.8595,-1.274757 c -0.6666,-0.988665 -1.10713,-1.548964 -1.9629,-2.496554 l -1.10341,-1.221796 -0.51084,-1.131728 -0.51083,-1.131729 1.1111,-0.802074 c 0.81659,-0.58947 1.1647,-0.803101 1.31331,-0.805945 0.11122,-0.0021 1.72768,-0.131089 3.59213,-0.286576 l 3.389916,-0.282705 3.598338,0.294126 3.59835,0.294127 1.08669,0.772524 c 0.59768,0.424888 1.08669,0.800965 1.08669,0.835726 0,0.03476 -0.21534,0.548901 -0.47853,1.142533 l -0.47854,1.07933 -1.11467,1.237157 c -0.84409,0.936841 -1.32329,1.54412 -1.97405,2.501702 l -0.85938,1.264545 0.36525,1.102229 0.36526,1.102228 1.94734,0.824121 1.94733,0.824121 2.0626,0.43396 c 1.13443,0.238677 2.40867,0.508974 2.83165,0.60066 0.42297,0.09169 2.24359,0.39509 4.04583,0.674231 4.90638,0.759929 9.21897,1.489074 9.90628,1.67489 l 0.61089,0.165155 h 3.85039 c 4.53633,0 4.30135,-0.03361 5.07749,0.72635 0.61273,0.599961 1.03556,1.321579 2.15838,3.683549 l 0.93958,1.976501 4.9787,0.04819 c 3.11922,0.03019 6.75204,0.112414 9.72672,0.220153 l 4.748,0.171968 3.81178,0.50342 3.81178,0.50342 2.75069,1.006797 2.75068,1.006797 1.63947,1.646732 1.63948,1.646731 0.53663,2.474312 0.53663,2.474313 -0.3871,2.875552 -0.38711,2.875552 -1.14188,2.741807 -1.14188,2.7418 -1.94633,2.67494 -1.94632,2.67493 -2.7555,2.5444 -2.75552,2.54441 -3.51085,2.36878 -3.51085,2.36879 -4.24572,2.17538 -4.24572,2.17538 -0.6026,1.1132 c -0.59571,1.1005 -0.62017,1.13339 -2.14419,2.88235 -1.35555,1.55564 -1.72277,1.92984 -3.04273,3.10057 -0.82563,0.73227 -2.06672,1.80756 -2.75798,2.38954 -1.48917,1.25373 -2.07137,1.94585 -2.36073,2.80647 l -0.17016,0.50609 -0.78106,0.457224 -0.78107,0.45722 -1.97276,0.41696 c -1.95228,0.41262 -2.00679,0.42006 -5.24956,0.71721 -2.87319,0.26327 -3.90277,0.32509 -8.35916,0.50187 -5.03164,0.19961 -5.35528,0.20534 -19.694188,0.34904 -1.08501,0.0109 -5.508676,-0.016 -9.830366,-0.0598 z m 62.846864,-24.924314 2.82809,-1.62559 2.30267,-1.99103 2.30267,-1.99103 1.72227,-2.1485 1.72227,-2.1485 1.18528,-2.14305 1.18528,-2.143041 0.67659,-1.937033 0.67659,-1.937032 0.23331,-1.712082 0.23332,-1.712082 -0.41861,-1.213991 -0.41861,-1.213991 -1.20698,-0.792723 c -0.66383,-0.435998 -1.23706,-0.808823 -1.27384,-0.828501 -0.0368,-0.01968 -1.01481,-0.263989 -2.17339,-0.542913 l -2.1065,-0.507135 -2.64317,-0.236484 c -2.14597,-0.192 -3.28442,-0.254995 -6.05204,-0.334883 -3.43316,-0.0991 -10.06276,-0.136986 -10.06276,-0.05751 0,0.02353 0.37241,0.873658 0.82758,1.889171 0.45516,1.015511 1.41775,3.311472 2.13908,5.102133 1.07507,2.668736 1.50516,3.84254 2.38542,6.510287 1.06287,3.22118 1.08103,3.2863 1.77225,6.35282 l 0.69838,3.09829 0.25102,2.94689 c 0.15116,1.77459 0.27782,2.94614 0.31839,2.94499 0.037,-0.001 1.34,-0.73342 2.89544,-1.62748 z"
       id="path75" />
  </g>
</svg>
