<?xml version="1.0" encoding="UTF-8" standalone="no"?>
<!-- Created with Inkscape (http://www.inkscape.org/) -->

<svg
   width="101.49497mm"
   height="101.62646mm"
   viewBox="0 0 101.49497 101.62646"
   version="1.1"
   id="svg5"
   sodipodi:docname="tech.svg"
   inkscape:version="1.1 (c68e22c387, 2021-05-23)"
   xmlns:inkscape="http://www.inkscape.org/namespaces/inkscape"
   xmlns:sodipodi="http://sodipodi.sourceforge.net/DTD/sodipodi-0.dtd"
   xmlns="http://www.w3.org/2000/svg"
   xmlns:svg="http://www.w3.org/2000/svg">
  <sodipodi:namedview
     id="namedview7"
     pagecolor="#505050"
     bordercolor="#eeeeee"
     borderopacity="1"
     inkscape:pageshadow="0"
     inkscape:pageopacity="0"
     inkscape:pagecheckerboard="0"
     inkscape:document-units="mm"
     showgrid="false"
     fit-margin-top="0"
     fit-margin-left="0"
     fit-margin-right="0"
     fit-margin-bottom="0"
     inkscape:zoom="1.4467452"
     inkscape:cx="90.893683"
     inkscape:cy="180.05935"
     inkscape:window-width="1920"
     inkscape:window-height="1001"
     inkscape:window-x="-9"
     inkscape:window-y="-9"
     inkscape:window-maximized="1"
     inkscape:current-layer="layer1" />
  <defs
     id="defs2" />
  <g
     inkscape:label="Layer 1"
     inkscape:groupmode="layer"
     id="layer1"
     transform="translate(-45.046517,-13.83017)">
    <path
       d="m 140.42881,54.179125 h -4.02166 c -3.28084,0 -6.0325,-2.83104 -6.0325,-6.19125 0,-1.69333 0.71437,-3.22791 1.98437,-4.365621 l 2.59292,-2.54 c 2.56646,-2.54 2.56646,-6.693959 0,-9.233959 l -5.90021,-5.847291 c -1.16417,-1.164167 -2.88396,-1.852084 -4.63021,-1.852084 -1.74625,0 -3.43958,0.687917 -4.63021,1.852084 l -2.48708,2.487083 c -1.19062,1.322917 -2.77812,2.037292 -4.49792,2.037292 -3.38666,0 -6.2177,-2.751667 -6.2177,-6.006042 v -4.048125 c 0,-3.571875 -2.88396,-6.641042 -6.4823,-6.641042 h -8.043333 c -3.59833,0 -6.45583,3.042709 -6.45583,6.641042 v 4.021667 c 0,3.254375 -2.83104,6.006041 -6.21771,6.006041 -1.69333,0 -3.25438,-0.714375 -4.39208,-1.957916 l -2.56646,-2.54 c -1.16417,-1.190625 -2.88396,-1.852084 -4.63021,-1.852084 -1.74625,0 -3.43958,0.687917 -4.63021,1.852084 l -5.95312,5.820833 c -2.54,2.54 -2.54,6.693958 0,9.2075 l 2.48708,2.487083 c 1.32292,1.190625 2.06375,2.778125 2.06375,4.471455 0,3.38667 -2.75167,6.19125 -6.0325,6.19125 h -4.02167 c -3.62479,0 -6.6675,2.83105 -6.6675,6.42938 v 4.02167 4.02166 c 0,3.57188 3.04271,6.42938 6.6675,6.42938 h 4.02167 c 3.28083,0 6.0325,2.83104 6.0325,6.19125 0,1.69333 -0.74083,3.28083 -2.06375,4.47146 l -2.48708,2.46062 c -2.54,2.54 -2.54,6.69396 0,9.2075 l 5.9002,5.873755 c 1.16417,1.19063 2.88396,1.85208 4.63021,1.85208 1.74625,0 3.43959,-0.68791 4.63021,-1.85208 l 2.56646,-2.54 c 1.11125,-1.243545 2.69875,-1.957925 4.39208,-1.957925 3.38667,0 6.21771,2.751675 6.21771,6.006055 v 4.02166 c 0,3.57188 2.8575,6.64104 6.48229,6.64104 h 8.043343 c 3.59833,0 6.45583,-3.0427 6.45583,-6.64104 v -4.02166 c 0,-3.25438 2.83104,-6.006055 6.21771,-6.006055 1.69333,0 3.28083,0.74084 4.49791,2.037305 l 2.48709,2.48708 c 1.19062,1.16417 2.88396,1.85208 4.63021,1.85208 1.74625,0 3.43958,-0.68791 4.6302,-1.85208 l 5.90021,-5.873755 c 2.54,-2.54 2.54,-6.69396 0,-9.23396 l -2.59291,-2.54 c -1.27,-1.13771 -1.98438,-2.69875 -1.98438,-4.36562 0,-3.38667 2.75167,-6.19125 6.0325,-6.19125 h 4.02167 c 3.59833,0 6.16479,-2.83105 6.16479,-6.42938 v -4.04812 -4.02167 c 0.0529,-3.59833 -2.51354,-6.42938 -6.11188,-6.42938 z m -23.20395,10.45105 v 0 c 0,11.66812 -9.44563,21.16666 -21.166673,21.16666 -11.72104,0 -21.16667,-9.49854 -21.16667,-21.16666 v 0 0 c 0,-11.66813 9.44563,-21.166671 21.16667,-21.166671 11.721043,0 21.166673,9.498541 21.166673,21.166671 z"
       id="path1075"
       style="fill:#ffffff;stroke-width:0.264583" />
  </g>
</svg>
